<svg width="715.9474853515625px" height="121.60000610351562px" xmlns="http://www.w3.org/2000/svg" viewBox="-107.97374267578124 14.199996948242188 715.9474853515625 121.60000610351562" style="background: rgba(0, 0, 0, 0);" preserveAspectRatio="xMidYMid"><defs><filter id="editing-jagged" x="-100%" y="-100%" width="300%" height="300%"><feTurbulence result="turb" baseFrequency="0.1" numOctaves="1" seed="1"></feTurbulence><feDisplacementMap in="SourceGraphic" in2="turb" scale="10"></feDisplacementMap></filter></defs><g filter="url(#editing-jagged)"><g transform="translate(-6.8743027448654175, 97.46499633789062)"><path d="M34.50-13.25L34.50-13.25L34.50-13.25Q36.16-12.03 36.16-9.44L36.16-9.44L36.16-9.44Q36.16-6.85 35.04-5.02L35.04-5.02L35.04-5.02Q33.92-3.20 31.74-1.79L31.74-1.79L31.74-1.79Q27.07 1.22 18.91 1.22L18.91 1.22L18.91 1.22Q10.75 1.22 6.30-3.04L6.30-3.04L6.30-3.04Q1.86-7.30 1.86-14.85L1.86-14.85L1.86-14.85Q1.86-25.54 7.42-33.66L7.42-33.66L7.42-33.66Q11.65-39.68 19.20-42.24L19.20-42.24L19.20-42.24Q23.10-43.52 26.94-43.52L26.94-43.52L26.94-43.52Q30.78-43.52 33.15-43.01L33.15-43.01L33.15-43.01Q35.52-42.50 37.31-41.47L37.31-41.47L37.31-41.47Q41.22-39.23 41.22-35.65L41.22-35.65L41.22-35.65Q41.22-32.38 38.14-29.95L38.14-29.95L38.14-29.95Q35.33-27.78 33.02-27.78L33.02-27.78L33.02-27.78Q30.72-27.78 29.76-28.10L29.76-28.10L29.76-28.10Q30.02-30.40 30.02-31.90L30.02-31.90L30.02-31.90Q30.02-33.41 29.95-34.50L29.95-34.50L29.95-34.50Q29.89-35.58 29.57-36.61L29.57-36.61L29.57-36.61Q28.93-38.98 26.98-38.98L26.98-38.98L26.98-38.98Q25.02-38.98 23.07-37.15L23.07-37.15L23.07-37.15Q21.12-35.33 19.46-32.26L19.46-32.26L19.46-32.26Q15.68-25.28 15.68-17.02L15.68-17.02L15.68-17.02Q15.68-13.06 17.92-10.78L17.92-10.78L17.92-10.78Q20.16-8.51 24.96-8.51L24.96-8.51L24.96-8.51Q28.54-8.51 31.94-10.88L31.94-10.88L31.94-10.88Q33.41-11.90 34.50-13.25ZM42.43-15.62L42.43-15.62L42.43-15.62Q42.43-27.71 48.70-35.33L48.70-35.33L48.70-35.33Q55.36-43.58 66.94-43.58L66.94-43.58L66.94-43.58Q75.33-43.58 79.55-39.52L79.55-39.52L79.55-39.52Q83.78-35.46 83.78-26.88L83.78-26.88L83.78-26.88Q83.78-13.82 77.12-6.21L77.12-6.21L77.12-6.21Q70.53 1.28 59.46 1.28L59.46 1.28L59.46 1.28Q50.82 1.28 46.62-3.04L46.62-3.04L46.62-3.04Q42.43-7.36 42.43-15.62ZM59.26-28.86L59.26-28.86L59.26-28.86Q56.38-17.34 56.38-8.26L56.38-8.26L56.38-8.26Q56.38-6.08 57.12-4.67L57.12-4.67L57.12-4.67Q57.86-3.26 59.81-3.26L59.81-3.26L59.81-3.26Q61.76-3.26 62.98-4.19L62.98-4.19L62.98-4.19Q64.19-5.12 65.15-7.23L65.15-7.23L65.15-7.23Q66.69-10.69 68.13-18.02L68.13-18.02L68.13-18.02Q69.57-25.34 69.70-28.38L69.70-28.38L69.70-28.38Q69.82-31.42 69.82-33.73L69.82-33.73L69.82-33.73Q69.82-36.03 69.12-37.50L69.12-37.50L69.12-37.50Q68.42-38.98 66.53-38.98L66.53-38.98L66.53-38.98Q64.64-38.98 63.36-37.82L63.36-37.82L63.36-37.82Q60.99-35.65 59.26-28.86ZM93.50 0L86.46 0L94.14-42.24L107.90-42.24L117.89-13.18L123.20-42.24L130.30-42.18L122.50 0L107.84 0L98.62-27.97L93.50 0ZM165.31-13.25L165.31-13.25L165.31-13.25Q166.98-12.03 166.98-9.44L166.98-9.44L166.98-9.44Q166.98-6.85 165.86-5.02L165.86-5.02L165.86-5.02Q164.74-3.20 162.56-1.79L162.56-1.79L162.56-1.79Q157.89 1.22 149.73 1.22L149.73 1.22L149.73 1.22Q141.57 1.22 137.12-3.04L137.12-3.04L137.12-3.04Q132.67-7.30 132.67-14.85L132.67-14.85L132.67-14.85Q132.67-25.54 138.24-33.66L138.24-33.66L138.24-33.66Q142.46-39.68 150.02-42.24L150.02-42.24L150.02-42.24Q153.92-43.52 157.76-43.52L157.76-43.52L157.76-43.52Q161.60-43.52 163.97-43.01L163.97-43.01L163.97-43.01Q166.34-42.50 168.13-41.47L168.13-41.47L168.13-41.47Q172.03-39.23 172.03-35.65L172.03-35.65L172.03-35.65Q172.03-32.38 168.96-29.95L168.96-29.95L168.96-29.95Q166.14-27.78 163.84-27.78L163.84-27.78L163.84-27.78Q161.54-27.78 160.58-28.10L160.58-28.10L160.58-28.10Q160.83-30.40 160.83-31.90L160.83-31.90L160.83-31.90Q160.83-33.41 160.77-34.50L160.77-34.50L160.77-34.50Q160.70-35.58 160.38-36.61L160.38-36.61L160.38-36.61Q159.74-38.98 157.79-38.98L157.79-38.98L157.79-38.98Q155.84-38.98 153.89-37.15L153.89-37.15L153.89-37.15Q151.94-35.33 150.27-32.26L150.27-32.26L150.27-32.26Q146.50-25.28 146.50-17.02L146.50-17.02L146.50-17.02Q146.50-13.06 148.74-10.78L148.74-10.78L148.74-10.78Q150.98-8.51 155.78-8.51L155.78-8.51L155.78-8.51Q159.36-8.51 162.75-10.88L162.75-10.88L162.75-10.88Q164.22-11.90 165.31-13.25ZM199.62-9.86L199.62-9.86L199.62-9.86Q200.83-8.32 200.83-5.82L200.83-5.82L200.83-5.82Q200.83-2.37 198.27-0.54L198.27-0.54L198.27-0.54Q195.71 1.28 191.68 1.28L191.68 1.28L191.68 1.28Q189.38 1.28 185.86 0.77L185.86 0.77L185.86 0.77Q178.94-0.32 176.83-0.32L176.83-0.32L176.83-0.32Q174.72-0.32 173.89-0.22L173.89-0.22L173.89-0.22Q173.06-0.13 171.71 0L171.71 0L179.58-42.24L207.17-42.24L207.17-42.24Q207.17-38.34 205.28-36.29L205.28-36.29L205.28-36.29Q203.39-34.24 199.68-34.24L199.68-34.24L199.68-34.24Q195.97-34.24 192.19-35.97L192.19-35.97L190.21-24.77L201.60-24.77L201.60-24.77Q201.60-21.38 199.94-19.49L199.94-19.49L199.94-19.49Q198.27-17.60 195.49-17.60L195.49-17.60L195.49-17.60Q192.70-17.60 190.98-18.24L190.98-18.24L190.98-18.24Q189.25-18.88 189.06-19.07L189.06-19.07L186.75-6.98L186.75-6.98Q188.29-6.78 191.17-6.78L191.17-6.78L191.17-6.78Q196.10-6.78 199.62-9.86ZM213.31 0L206.27 0L213.95-42.24L227.71-42.24L237.70-13.18L243.01-42.24L250.11-42.18L242.30 0L227.65 0L218.43-27.97L213.31 0ZM256.83-31.17L256.83-31.17L256.83-31.17Q254.66-32.83 254.66-36.38L254.66-36.38L254.66-36.38Q254.66-39.94 256.99-41.79L256.99-41.79L256.99-41.79Q259.33-43.65 263.36-43.65L263.36-43.65L263.36-43.65Q265.92-43.65 272-42.75L272-42.75L276.35-42.11L276.35-42.11Q278.53-41.86 280.80-41.86L280.80-41.86L280.80-41.86Q283.07-41.86 284.61-42.82L284.61-42.82L284.61-42.82Q286.91-40.77 286.91-37.82L286.91-37.82L286.91-37.82Q286.91-34.88 284.29-32.77L284.29-32.77L284.29-32.77Q281.60-30.53 278.14-30.53L278.14-30.53L278.14-30.53Q276.48-30.53 273.79-30.98L273.79-30.98L273.79-30.98Q270.66-21.12 270.66-14.27L270.66-14.27L270.66-14.27Q270.66-7.42 274.11-3.84L274.11-3.84L274.11-3.84Q272.51-0.96 270.14 0.16L270.14 0.16L270.14 0.16Q267.78 1.28 264.22 1.28L264.22 1.28L264.22 1.28Q260.67 1.28 258.46-0.67L258.46-0.67L258.46-0.67Q256.26-2.62 256.26-6.66L256.26-6.66L256.26-6.66Q256.26-11.33 258.82-19.01L258.82-19.01L258.82-19.01Q261.38-26.62 265.22-32.45L265.22-32.45L265.22-32.45Q263.36-32.64 261.44-32.64L261.44-32.64L261.44-32.64Q257.47-32.64 256.83-31.17ZM297.98 0L284.29 0L292.10-42.05L292.10-42.05Q298.43-42.75 307.68-42.75L307.68-42.75L307.68-42.75Q316.93-42.75 321.22-40.06L321.22-40.06L321.22-40.06Q325.50-37.38 325.50-31.97L325.50-31.97L325.50-31.97Q325.50-26.56 322.72-23.17L322.72-23.17L322.72-23.17Q319.94-19.78 315.14-18.69L315.14-18.69L315.14-18.69Q316.22-13.38 318.72-9.09L318.72-9.09L318.72-9.09Q321.02-5.06 323.71-3.78L323.71-3.78L323.71-3.78Q322.75-1.09 320.80 0.10L320.80 0.10L320.80 0.10Q318.85 1.28 316.06 1.28L316.06 1.28L316.06 1.28Q313.28 1.28 311.10-0.35L311.10-0.35L311.10-0.35Q308.93-1.98 307.20-4.99L307.20-4.99L307.20-4.99Q303.55-11.52 303.17-21.82L303.17-21.82L303.62-21.82L303.62-21.82Q308.35-21.95 310.72-24.42L310.72-24.42L310.72-24.42Q313.09-26.88 313.09-32.06L313.09-32.06L313.09-32.06Q313.09-38.53 307.65-38.78L307.65-38.78L306.24-38.78L306.24-38.78Q305.66-38.78 305.34-38.72L305.34-38.72L297.98 0ZM356.54 1.28L356.54 1.28L356.54 1.28Q348.35 1.28 347.58-10.37L347.58-10.37L336.58-10.37L336.58-10.37Q335.30-7.42 334.40-4.86L334.40-4.86L332.74 0L323.78 0L343.94-42.24L357.70-42.24L360.38-11.14L360.38-11.14Q361.02-4.42 363.58-2.43L363.58-2.43L363.58-2.43Q361.73 1.28 356.54 1.28ZM342.08-23.17L338.56-15.04L347.39-15.04L346.62-31.49L346.62-33.22L342.08-23.17ZM372.42-31.17L372.42-31.17L372.42-31.17Q370.24-32.83 370.24-36.38L370.24-36.38L370.24-36.38Q370.24-39.94 372.58-41.79L372.58-41.79L372.58-41.79Q374.91-43.65 378.94-43.65L378.94-43.65L378.94-43.65Q381.50-43.65 387.58-42.75L387.58-42.75L391.94-42.11L391.94-42.11Q394.11-41.86 396.38-41.86L396.38-41.86L396.38-41.86Q398.66-41.86 400.19-42.82L400.19-42.82L400.19-42.82Q402.50-40.77 402.50-37.82L402.50-37.82L402.50-37.82Q402.50-34.88 399.87-32.77L399.87-32.77L399.87-32.77Q397.18-30.53 393.73-30.53L393.73-30.53L393.73-30.53Q392.06-30.53 389.38-30.98L389.38-30.98L389.38-30.98Q386.24-21.12 386.24-14.27L386.24-14.27L386.24-14.27Q386.24-7.42 389.70-3.84L389.70-3.84L389.70-3.84Q388.10-0.96 385.73 0.16L385.73 0.16L385.73 0.16Q383.36 1.28 379.81 1.28L379.81 1.28L379.81 1.28Q376.26 1.28 374.05-0.67L374.05-0.67L374.05-0.67Q371.84-2.62 371.84-6.66L371.84-6.66L371.84-6.66Q371.84-11.33 374.40-19.01L374.40-19.01L374.40-19.01Q376.96-26.62 380.80-32.45L380.80-32.45L380.80-32.45Q378.94-32.64 377.02-32.64L377.02-32.64L377.02-32.64Q373.06-32.64 372.42-31.17ZM413.70 0L399.74 0L407.87-42.24L421.95-42.24L413.70 0ZM424.32-15.62L424.32-15.62L424.32-15.62Q424.32-27.71 430.59-35.33L430.59-35.33L430.59-35.33Q437.25-43.58 448.83-43.58L448.83-43.58L448.83-43.58Q457.22-43.58 461.44-39.52L461.44-39.52L461.44-39.52Q465.66-35.46 465.66-26.88L465.66-26.88L465.66-26.88Q465.66-13.82 459.01-6.21L459.01-6.21L459.01-6.21Q452.42 1.28 441.34 1.28L441.34 1.28L441.34 1.28Q432.70 1.28 428.51-3.04L428.51-3.04L428.51-3.04Q424.32-7.36 424.32-15.62ZM441.15-28.86L441.15-28.86L441.15-28.86Q438.27-17.34 438.27-8.26L438.27-8.26L438.27-8.26Q438.27-6.08 439.01-4.67L439.01-4.67L439.01-4.67Q439.74-3.26 441.70-3.26L441.70-3.26L441.70-3.26Q443.65-3.26 444.86-4.19L444.86-4.19L444.86-4.19Q446.08-5.12 447.04-7.23L447.04-7.23L447.04-7.23Q448.58-10.69 450.02-18.02L450.02-18.02L450.02-18.02Q451.46-25.34 451.58-28.38L451.58-28.38L451.58-28.38Q451.71-31.42 451.71-33.73L451.71-33.73L451.71-33.73Q451.71-36.03 451.01-37.50L451.01-37.50L451.01-37.50Q450.30-38.98 448.42-38.98L448.42-38.98L448.42-38.98Q446.53-38.98 445.25-37.82L445.25-37.82L445.25-37.82Q442.88-35.65 441.15-28.86ZM475.39 0L468.35 0L476.03-42.24L489.79-42.24L499.78-13.18L505.09-42.24L512.19-42.18L504.38 0L489.73 0L480.51-27.97L475.39 0Z" fill="#444"></path></g></g><style>text {
  font-size: 64px;
  font-family: Arial Black;
  dominant-baseline: central;
  text-anchor: middle;
}</style></svg>