<svg width="349.6166137695312px" height="121.60000610351562px" xmlns="http://www.w3.org/2000/svg" viewBox="75.19169311523439 14.199996948242188 349.6166137695312 121.60000610351562" style="background: rgba(0, 0, 0, 0);" preserveAspectRatio="xMidYMid"><defs><filter id="editing-neon" x="-100%" y="-100%" width="300%" height="300%"><feFlood flood-color="#00ff2f" result="flood"></feFlood><feComposite operator="in" in="flood" in2="SourceAlpha" result="color"></feComposite><feFlood flood-color="#00ff2f" result="flood2"></feFlood><feComposite operator="in" in="flood2" in2="SourceAlpha" result="color2"></feComposite><feMorphology operator="dilate" radius="2" in="color" result="dilate"></feMorphology><feGaussianBlur stdDeviation="6" in="color" result="blur1"></feGaussianBlur><feGaussianBlur stdDeviation="2.5" in="color" result="blur2"></feGaussianBlur><feGaussianBlur stdDeviation="1" in="SourceAlpha" result="blur3"></feGaussianBlur><feGaussianBlur stdDeviation="6" in="dilate" result="blur4"></feGaussianBlur><feConvolveMatrix in="color2" result="conv" order="3,3" divisor="1" kernelMatrix="1 1 1  1 1 1  1 1 1"></feConvolveMatrix><feMerge><feMergeNode in="blur1"></feMergeNode><feMergeNode in="blur2"></feMergeNode><feMergeNode in="blur4"></feMergeNode><feMergeNode in="blur3"></feMergeNode><feMergeNode in="blur3"></feMergeNode><feMergeNode in="blur3"></feMergeNode><feMergeNode in="blur3"></feMergeNode><feMergeNode in="conv"></feMergeNode><feMergeNode in="SourceGraphic"></feMergeNode></feMerge></filter></defs><g filter="url(#editing-neon)"><g transform="translate(131.0857870578766, 97.39999580383301)"><path d="M28.42-9.86L28.42-9.86L28.42-9.86Q29.63-8.32 29.63-5.82L29.63-5.82L29.63-5.82Q29.63-2.37 27.07-0.54L27.07-0.54L27.07-0.54Q24.51 1.28 20.48 1.28L20.48 1.28L20.48 1.28Q18.18 1.28 14.66 0.77L14.66 0.77L14.66 0.77Q7.74-0.32 5.63-0.32L5.63-0.32L5.63-0.32Q3.52-0.32 2.69-0.22L2.69-0.22L2.69-0.22Q1.86-0.13 0.51 0L0.51 0L8.38-42.24L35.97-42.24L35.97-42.24Q35.97-38.34 34.08-36.29L34.08-36.29L34.08-36.29Q32.19-34.24 28.48-34.24L28.48-34.24L28.48-34.24Q24.77-34.24 20.99-35.97L20.99-35.97L19.01-24.77L30.40-24.77L30.40-24.77Q30.40-21.38 28.74-19.49L28.74-19.49L28.74-19.49Q27.07-17.60 24.29-17.60L24.29-17.60L24.29-17.60Q21.50-17.60 19.78-18.24L19.78-18.24L19.78-18.24Q18.05-18.88 17.86-19.07L17.86-19.07L15.55-6.98L15.55-6.98Q17.09-6.78 19.97-6.78L19.97-6.78L19.97-6.78Q24.90-6.78 28.42-9.86ZM42.11 0L35.07 0L42.75-42.24L56.51-42.24L66.50-13.18L71.81-42.24L78.91-42.18L71.10 0L56.45 0L47.23-27.97L42.11 0ZM107.84-9.86L107.84-9.86L107.84-9.86Q109.06-8.32 109.06-5.82L109.06-5.82L109.06-5.82Q109.06-2.37 106.50-0.54L106.50-0.54L106.50-0.54Q103.94 1.28 99.90 1.28L99.90 1.28L99.90 1.28Q97.60 1.28 94.08 0.77L94.08 0.77L94.08 0.77Q87.17-0.32 85.06-0.32L85.06-0.32L85.06-0.32Q82.94-0.32 82.11-0.22L82.11-0.22L82.11-0.22Q81.28-0.13 79.94 0L79.94 0L87.81-42.24L115.39-42.24L115.39-42.24Q115.39-38.34 113.50-36.29L113.50-36.29L113.50-36.29Q111.62-34.24 107.90-34.24L107.90-34.24L107.90-34.24Q104.19-34.24 100.42-35.97L100.42-35.97L98.43-24.77L109.82-24.77L109.82-24.77Q109.82-21.38 108.16-19.49L108.16-19.49L108.16-19.49Q106.50-17.60 103.71-17.60L103.71-17.60L103.71-17.60Q100.93-17.60 99.20-18.24L99.20-18.24L99.20-18.24Q97.47-18.88 97.28-19.07L97.28-19.07L94.98-6.98L94.98-6.98Q96.51-6.78 99.39-6.78L99.39-6.78L99.39-6.78Q104.32-6.78 107.84-9.86ZM128.06 0L114.37 0L122.18-42.05L122.18-42.05Q128.51-42.75 137.76-42.75L137.76-42.75L137.76-42.75Q147.01-42.75 151.30-40.06L151.30-40.06L151.30-40.06Q155.58-37.38 155.58-31.97L155.58-31.97L155.58-31.97Q155.58-26.56 152.80-23.17L152.80-23.17L152.80-23.17Q150.02-19.78 145.22-18.69L145.22-18.69L145.22-18.69Q146.30-13.38 148.80-9.09L148.80-9.09L148.80-9.09Q151.10-5.06 153.79-3.78L153.79-3.78L153.79-3.78Q152.83-1.09 150.88 0.10L150.88 0.10L150.88 0.10Q148.93 1.28 146.14 1.28L146.14 1.28L146.14 1.28Q143.36 1.28 141.18-0.35L141.18-0.35L141.18-0.35Q139.01-1.98 137.28-4.99L137.28-4.99L137.28-4.99Q133.63-11.52 133.25-21.82L133.25-21.82L133.70-21.82L133.70-21.82Q138.43-21.95 140.80-24.42L140.80-24.42L140.80-24.42Q143.17-26.88 143.17-32.06L143.17-32.06L143.17-32.06Q143.17-38.53 137.73-38.78L137.73-38.78L136.32-38.78L136.32-38.78Q135.74-38.78 135.42-38.72L135.42-38.72L128.06 0ZM184.45-20.61L197.38-21.76L197.38-21.76Q192.77-11.65 192.77 0.06L192.77 0.06L192.77 0.06Q191.04 1.28 188.51 1.28L188.51 1.28L188.51 1.28Q185.98 1.28 184.38 0.10L184.38 0.10L184.38 0.10Q182.78-1.09 182.46-2.30L182.46-2.30L182.46-2.30Q180.86-0.64 178.27 0.32L178.27 0.32L178.27 0.32Q175.68 1.28 172.93 1.28L172.93 1.28L172.93 1.28Q170.18 1.28 167.78 0.38L167.78 0.38L167.78 0.38Q165.38-0.51 163.52-2.50L163.52-2.50L163.52-2.50Q159.42-6.85 159.42-15.10L159.42-15.10L159.42-15.10Q159.42-27.90 166.27-35.58L166.27-35.58L166.27-35.58Q173.31-43.52 185.79-43.52L185.79-43.52L185.79-43.52Q194.43-43.52 197.50-39.04L197.50-39.04L197.50-39.04Q198.46-37.63 198.46-35.94L198.46-35.94L198.46-35.94Q198.46-34.24 197.73-32.80L197.73-32.80L197.73-32.80Q196.99-31.36 195.84-30.21L195.84-30.21L195.84-30.21Q193.09-27.65 189.70-27.65L189.70-27.65L189.70-27.65Q188.35-27.65 187.07-28.10L187.07-28.10L187.07-28.10Q187.33-30.02 187.33-32.26L187.33-32.26L187.33-32.26Q187.33-34.50 187.17-35.52L187.17-35.52L187.17-35.52Q187.01-36.54 186.62-37.38L186.62-37.38L186.62-37.38Q185.79-39.10 183.97-39.10L183.97-39.10L183.97-39.10Q182.14-39.10 180.13-37.15L180.13-37.15L180.13-37.15Q178.11-35.20 176.51-32L176.51-32L176.51-32Q172.99-24.83 172.99-16.19L172.99-16.19L172.99-16.19Q172.99-12.22 174.53-9.41L174.53-9.41L174.53-9.41Q176.19-6.34 179.14-6.34L179.14-6.34L179.14-6.34Q180.16-6.34 181.09-6.85L181.09-6.85L181.09-6.85Q182.02-7.36 182.40-7.74L182.40-7.74L184.45-20.61ZM206.59 0L210.30-18.82L210.30-18.82Q208.45-36.16 201.92-39.87L201.92-39.87L201.92-39.87Q203.26-41.54 205.44-42.46L205.44-42.46L205.44-42.46Q207.62-43.39 210.24-43.39L210.24-43.39L210.24-43.39Q212.86-43.39 214.85-42.46L214.85-42.46L214.85-42.46Q216.83-41.54 218.11-39.55L218.11-39.55L218.11-39.55Q220.54-35.78 220.54-26.75L220.54-26.75L220.54-22.14L220.54-22.14Q224.38-33.41 228.22-38.27L228.22-38.27L228.22-38.27Q232.13-43.26 236.99-43.26L236.99-43.26L236.99-43.26Q238.91-43.26 240.19-42.27L240.19-42.27L240.19-42.27Q241.47-41.28 242.11-39.81L242.11-39.81L242.11-39.81Q237.18-37.63 232.45-31.36L232.45-31.36L232.45-31.36Q227.71-25.09 224.64-16.32L224.64-16.32L220.86 0L206.59 0Z" fill="none" stroke="#e9ffd4" stroke-width="1"></path></g></g><style>text {
  font-size: 64px;
  font-family: Arial Black;
  dominant-baseline: central;
  text-anchor: middle;
}</style></svg>