<svg width="336.8625122070312px" height="121.60000610351562px" xmlns="http://www.w3.org/2000/svg" viewBox="81.56874389648439 14.199996948242188 336.8625122070312 121.60000610351562" style="background:#051103" preserveAspectRatio="xMidYMid"><defs><linearGradient id="editing-glowing-gradient" x1="0.8146601955249185" x2="0.18533980447508147" y1="0.8885729807284856" y2="0.11142701927151444"><stop offset="0" stop-color="#67ff43"></stop><stop offset="1" stop-color="#90ffff"></stop></linearGradient><filter id="editing-glowing" x="-100%" y="-100%" width="300%" height="300%"><feGaussianBlur in="SourceGraphic" result="blur" stdDeviation="10"></feGaussianBlur><feMerge><feMergeNode in="blur"></feMergeNode><feMergeNode in="SourceGraphic"></feMergeNode></feMerge></filter></defs><g filter="url(#editing-glowing)"><g transform="translate(135.6817605495453, 98.67999649047852)"><path d="M17.60-30.34L17.60-30.34L17.60-30.34Q21.06-33.92 28.35-33.92L28.35-33.92L28.35-33.92Q32.38-33.92 34.59-31.78L34.59-31.78L34.59-31.78Q36.80-29.63 36.80-25.70L36.80-25.70L36.80-25.70Q36.80-21.76 34.59-18.98L34.59-18.98L34.59-18.98Q32.38-16.19 28.29-15.04L28.29-15.04L28.29-15.04Q28.61-13.76 29.06-12.42L29.06-12.42L29.95-9.86L29.95-9.86Q31.17-6.59 32.13-5.44L32.13-5.44L32.13-5.44Q33.09-4.29 34.37-3.90L34.37-3.90L34.37-3.90Q33.66-1.28 31.10 0.13L31.10 0.13L31.10 0.13Q29.06 1.28 26.24 1.28L26.24 1.28L26.24 1.28Q17.98 1.28 16.90-11.46L16.90-11.46L16.90-11.46Q16.70-13.25 16.70-15.04L16.70-15.04L16.70-15.04Q19.90-15.94 22.14-18.94L22.14-18.94L22.14-18.94Q24.38-21.95 24.38-25.47L24.38-25.47L24.38-25.47Q24.38-28.99 21.89-28.99L21.89-28.99L21.89-28.99Q20.10-28.99 18.69-27.01L18.69-27.01L18.69-27.01Q17.28-25.02 16.64-21.63L16.64-21.63L12.42 0L-0.51 1.28L8.45-44.80L21.31-46.08L19.84-38.46L19.84-38.46Q18.88-33.09 17.60-30.34ZM59.78-17.98L59.78-17.98L59.78-17.98Q62.08-22.08 62.08-26.24L62.08-26.24L62.08-26.24Q62.08-28.99 60.10-28.99L60.10-28.99L60.10-28.99Q58.56-28.99 56.96-26.37L56.96-26.37L56.96-26.37Q55.30-23.74 54.78-20.35L54.78-20.35L51.46 0L38.21 1.28L44.74-32.64L55.30-33.92L54.14-27.46L54.14-27.46Q57.28-33.92 64.32-33.92L64.32-33.92L64.32-33.92Q68.03-33.92 70.05-32L70.05-32L70.05-32Q72.06-30.08 72.06-26.14L72.06-26.14L72.06-26.14Q72.06-22.21 69.47-19.71L69.47-19.71L69.47-19.71Q66.88-17.22 62.46-17.22L62.46-17.22L62.46-17.22Q60.54-17.22 59.78-17.98ZM75.87-1.92L75.87-1.92L75.87-1.92Q74.37-3.58 73.70-6.21L73.70-6.21L73.70-6.21Q73.02-8.83 73.02-13.12L73.02-13.12L73.02-13.12Q73.02-17.41 74.50-21.31L74.50-21.31L74.50-21.31Q75.97-25.22 78.66-28.03L78.66-28.03L78.66-28.03Q84.16-33.92 93.25-33.92L93.25-33.92L93.25-33.92Q96.51-33.92 98.88-32.83L98.88-32.83L109.82-33.92L105.09-8.96L105.09-8.96Q104.90-8.19 104.90-6.78L104.90-6.78L104.90-6.78Q104.90-5.38 105.76-4.48L105.76-4.48L105.76-4.48Q106.62-3.58 107.90-3.46L107.90-3.46L107.90-3.46Q107.26-1.28 104.93 0L104.93 0L104.93 0Q102.59 1.28 99.97 1.28L99.97 1.28L99.97 1.28Q97.34 1.28 95.58 0.29L95.58 0.29L95.58 0.29Q93.82-0.70 93.31-2.37L93.31-2.37L93.31-2.37Q92.29-0.77 90.11 0.26L90.11 0.26L90.11 0.26Q87.94 1.28 85.02 1.28L85.02 1.28L85.02 1.28Q82.11 1.28 79.74 0.51L79.74 0.51L79.74 0.51Q77.38-0.26 75.87-1.92ZM89.38-27.90L89.38-27.90L89.38-27.90Q88.64-26.75 88-24.80L88-24.80L88-24.80Q87.36-22.85 86.30-17.63L86.30-17.63L86.30-17.63Q85.25-12.42 85.25-8.70L85.25-8.70L85.25-8.70Q85.25-4.99 85.82-3.90L85.82-3.90L85.82-3.90Q86.40-2.82 87.42-2.82L87.42-2.82L87.42-2.82Q89.47-2.82 90.98-4.77L90.98-4.77L90.98-4.77Q92.48-6.72 93.06-10.18L93.06-10.18L96.45-28.93L96.45-28.93Q95.10-30.08 93.54-30.08L93.54-30.08L93.54-30.08Q91.97-30.08 91.04-29.57L91.04-29.57L91.04-29.57Q90.11-29.06 89.38-27.90ZM114.30-6.40L114.30-6.40L114.30-6.40Q114.30-8.13 115.20-12.48L115.20-12.48L118.59-29.76L114.82-29.76L115.07-31.68L115.07-31.68Q122.75-33.98 130.18-39.62L130.18-39.62L133.25-39.62L131.71-32.64L136.70-32.64L136.13-29.76L131.20-29.76L127.94-12.48L127.94-12.48Q127.10-8.51 127.10-7.17L127.10-7.17L127.10-7.17Q127.10-4.10 129.79-3.46L129.79-3.46L129.79-3.46Q129.15-1.28 126.85 0L126.85 0L126.85 0Q124.54 1.28 121.28 1.28L121.28 1.28L121.28 1.28Q118.02 1.28 116.16-0.77L116.16-0.77L116.16-0.77Q114.30-2.82 114.30-6.40ZM150.08 1.28L150.08 1.28L150.08 1.28Q136 1.28 136-11.97L136-11.97L136-11.97Q136-21.38 141.18-27.46L141.18-27.46L141.18-27.46Q146.69-33.92 156.22-33.92L156.22-33.92L156.22-33.92Q163.14-33.92 166.66-30.72L166.66-30.72L166.66-30.72Q170.18-27.52 170.18-20.80L170.18-20.80L170.18-20.80Q170.18-10.56 164.67-4.61L164.67-4.61L164.67-4.61Q159.30 1.28 150.08 1.28ZM151.74-26.56L151.74-26.56L151.74-26.56Q150.98-24.83 150.37-22.24L150.37-22.24L150.37-22.24Q149.76-19.65 148.99-15.55L148.99-15.55L148.99-15.55Q148.22-11.46 148.22-6.40L148.22-6.40L148.22-6.40Q148.22-4.74 148.77-3.65L148.77-3.65L148.77-3.65Q149.31-2.56 150.78-2.56L150.78-2.56L150.78-2.56Q152.26-2.56 153.18-3.26L153.18-3.26L153.18-3.26Q154.11-3.97 154.82-5.63L154.82-5.63L154.82-5.63Q156.10-8.58 157.12-14.05L157.12-14.05L157.12-14.05Q158.14-19.52 158.24-21.89L158.24-21.89L158.24-21.89Q158.34-24.26 158.34-26.02L158.34-26.02L158.34-26.02Q158.34-27.78 157.82-28.93L157.82-28.93L157.82-28.93Q157.31-30.08 155.87-30.08L155.87-30.08L155.87-30.08Q154.43-30.08 153.47-29.18L153.47-29.18L153.47-29.18Q152.51-28.29 151.74-26.56ZM220.03 1.28L220.03 1.28L220.03 1.28Q212.29 1.28 212.29-4.74L212.29-4.74L212.29-4.74Q212.29-7.36 213.41-12.45L213.41-12.45L213.41-12.45Q214.53-17.54 214.91-19.58L214.91-19.58L214.91-19.58Q215.81-24.26 215.81-25.73L215.81-25.73L215.81-25.73Q215.81-28.99 213.38-28.99L213.38-28.99L213.38-28.99Q211.78-28.99 210.24-26.78L210.24-26.78L210.24-26.78Q208.70-24.58 208.00-20.16L208.00-20.16L204.03 0L191.55 1.28L195.01-16.13L195.01-16.13Q195.58-19.01 196.10-22.27L196.10-22.27L196.10-22.27Q196.61-25.54 196.61-26.05L196.61-26.05L196.61-26.05Q196.61-28.99 194.43-28.99L194.43-28.99L194.43-28.99Q192.96-28.99 191.36-26.82L191.36-26.82L191.36-26.82Q189.76-24.64 188.86-20.16L188.86-20.16L184.96 0L172.35 1.28L179.07-32.64L189.50-33.92L188.42-27.46L188.42-27.46Q190.08-30.91 193.15-32.42L193.15-32.42L193.15-32.42Q196.22-33.92 201.02-33.92L201.02-33.92L201.02-33.92Q203.78-33.92 205.57-32.58L205.57-32.58L205.57-32.58Q207.36-31.23 207.94-29.06L207.94-29.06L207.94-29.06Q209.02-31.30 211.81-32.61L211.81-32.61L211.81-32.61Q214.59-33.92 218.02-33.92L218.02-33.92L218.02-33.92Q221.44-33.92 223.14-33.18L223.14-33.18L223.14-33.18Q224.83-32.45 225.86-31.23L225.86-31.23L225.86-31.23Q227.58-28.99 227.58-24.90L227.58-24.90L227.58-24.90Q227.58-20.86 225.86-12.48L225.86-12.48L225.86-12.48Q224.96-8.38 224.96-6.88L224.96-6.88L224.96-6.88Q224.96-5.38 225.82-4.48L225.82-4.48L225.82-4.48Q226.69-3.58 227.97-3.46L227.97-3.46L227.97-3.46Q227.33-1.28 225.12 0L225.12 0L225.12 0Q222.91 1.28 220.03 1.28Z" fill="url(#editing-glowing-gradient)"></path></g></g><style>text {
  font-size: 64px;
  font-family: Arial Black;
  dominant-baseline: central;
  text-anchor: middle;
}</style></svg>