<svg width="224.86249999999998px" height="78.4000015258789px" xmlns="http://www.w3.org/2000/svg" viewBox="137.56875000000002 35.79999923706055 224.86249999999998 78.4000015258789" style="background: rgba(0, 0, 0, 0);" preserveAspectRatio="xMidYMid"><defs><filter id="editing-jagged" x="-100%" y="-100%" width="300%" height="300%"><feTurbulence result="turb" baseFrequency="0.24" numOctaves="1" seed="1"></feTurbulence><feDisplacementMap in="SourceGraphic" in2="turb" scale="10"></feDisplacementMap></filter></defs><g filter="url(#editing-jagged)"><g transform="translate(174.64998930692673, 87.98499393463135)"><path d="M8.18 0L0.30 0L4.51-22.50L4.92-24.42L12.84-24.42L8.18 0ZM23.20-2.18L23.20-2.18L23.20-2.18Q22.20 0.74 18.35 0.74L18.35 0.74L18.35 0.74Q15.50 0.74 13.54-2.66L13.54-2.66L13.54-2.66Q11.54-6.07 11.17-11.62L11.17-11.62L11.17-11.62Q15.24-19.05 18.06-22.13L18.06-22.13L18.06-22.13Q20.76-25.05 23.57-25.05L23.57-25.05L23.57-25.05Q25.09-25.05 26.18-24.23L26.18-24.23L26.18-24.23Q27.27-23.42 27.53-22.13L27.53-22.13L27.53-22.13Q26.27-21.61 25.68-21.20L25.68-21.20L25.68-21.20Q24.20-20.09 22.20-17.61L22.20-17.61L18.83-13.58L18.83-13.58Q18.02-12.62 17.69-12.17L17.69-12.17L17.69-12.17Q18.24-9.06 19.91-5.99L19.91-5.99L19.91-5.99Q21.50-3.07 23.20-2.18ZM33.93 0L26.01 0L30.52-24.31L30.52-24.31Q34.19-24.72 39.53-24.72L39.53-24.72L39.53-24.72Q44.88-24.72 47.36-23.16L47.36-23.16L47.36-23.16Q49.84-21.61 49.84-18.48L49.84-18.48L49.84-18.48Q49.84-15.35 48.23-13.39L48.23-13.39L48.23-13.39Q46.62-11.43 43.84-10.80L43.84-10.80L43.84-10.80Q44.47-7.73 45.92-5.25L45.92-5.25L45.92-5.25Q47.25-2.92 48.80-2.18L48.80-2.18L48.80-2.18Q48.25-0.63 47.12 0.06L47.12 0.06L47.12 0.06Q45.99 0.74 44.38 0.74L44.38 0.74L44.38 0.74Q42.77 0.74 41.51-0.20L41.51-0.20L41.51-0.20Q40.26-1.15 39.26-2.89L39.26-2.89L39.26-2.89Q37.15-6.66 36.93-12.62L36.93-12.62L37.19-12.62L37.19-12.62Q39.92-12.69 41.29-14.12L41.29-14.12L41.29-14.12Q42.66-15.54 42.66-18.54L42.66-18.54L42.66-18.54Q42.66-22.27 39.52-22.42L39.52-22.42L38.70-22.42L38.70-22.42Q38.37-22.42 38.18-22.38L38.18-22.38L33.93 0ZM67.78 0.74L67.78 0.74L67.78 0.74Q63.05 0.74 62.60-5.99L62.60-5.99L56.24-5.99L56.24-5.99Q55.50-4.29 54.98-2.81L54.98-2.81L54.02 0L48.84 0L60.49-24.42L68.45-24.42L70.00-6.44L70.00-6.44Q70.37-2.55 71.85-1.41L71.85-1.41L71.85-1.41Q70.78 0.74 67.78 0.74ZM59.42-13.39L57.39-8.70L62.49-8.70L62.05-18.20L62.05-19.20L59.42-13.39ZM76.96-18.02L76.96-18.02L76.96-18.02Q75.70-18.98 75.70-21.03L75.70-21.03L75.70-21.03Q75.70-23.09 77.05-24.16L77.05-24.16L77.05-24.16Q78.40-25.23 80.73-25.23L80.73-25.23L80.73-25.23Q82.21-25.23 85.73-24.72L85.73-24.72L88.24-24.35L88.24-24.35Q89.50-24.20 90.82-24.20L90.82-24.20L90.82-24.20Q92.13-24.20 93.02-24.75L93.02-24.75L93.02-24.75Q94.35-23.57 94.35-21.87L94.35-21.87L94.35-21.87Q94.35-20.16 92.83-18.94L92.83-18.94L92.83-18.94Q91.28-17.65 89.28-17.65L89.28-17.65L89.28-17.65Q88.32-17.65 86.77-17.91L86.77-17.91L86.77-17.91Q84.95-12.21 84.95-8.25L84.95-8.25L84.95-8.25Q84.95-4.29 86.95-2.22L86.95-2.22L86.95-2.22Q86.02-0.55 84.66 0.09L84.66 0.09L84.66 0.09Q83.29 0.74 81.23 0.74L81.23 0.74L81.23 0.74Q79.18 0.74 77.90-0.39L77.90-0.39L77.90-0.39Q76.63-1.52 76.63-3.85L76.63-3.85L76.63-3.85Q76.63-6.55 78.11-10.99L78.11-10.99L78.11-10.99Q79.59-15.39 81.81-18.76L81.81-18.76L81.81-18.76Q80.73-18.87 79.62-18.87L79.62-18.87L79.62-18.87Q77.33-18.87 76.96-18.02ZM93.72-9.03L93.72-9.03L93.72-9.03Q93.72-16.02 97.35-20.42L97.35-20.42L97.35-20.42Q101.19-25.20 107.89-25.20L107.89-25.20L107.89-25.20Q112.74-25.20 115.18-22.85L115.18-22.85L115.18-22.85Q117.62-20.50 117.62-15.54L117.62-15.54L117.62-15.54Q117.62-7.99 113.77-3.59L113.77-3.59L113.77-3.59Q109.96 0.74 103.56 0.74L103.56 0.74L103.56 0.74Q98.57 0.74 96.14-1.76L96.14-1.76L96.14-1.76Q93.72-4.25 93.72-9.03ZM103.45-16.69L103.45-16.69L103.45-16.69Q101.79-10.03 101.79-4.77L101.79-4.77L101.79-4.77Q101.79-3.51 102.21-2.70L102.21-2.70L102.21-2.70Q102.64-1.89 103.77-1.89L103.77-1.89L103.77-1.89Q104.89-1.89 105.60-2.42L105.60-2.42L105.60-2.42Q106.30-2.96 106.86-4.18L106.86-4.18L106.86-4.18Q107.74-6.18 108.58-10.42L108.58-10.42L108.58-10.42Q109.41-14.65 109.48-16.41L109.48-16.41L109.48-16.41Q109.56-18.17 109.56-19.50L109.56-19.50L109.56-19.50Q109.56-20.83 109.15-21.68L109.15-21.68L109.15-21.68Q108.74-22.53 107.65-22.53L107.65-22.53L107.65-22.53Q106.56-22.53 105.82-21.87L105.82-21.87L105.82-21.87Q104.45-20.61 103.45-16.69ZM122.58 0L118.33 0L125.02-24.42L132.76-24.42L134.46-10.47L141.34-24.42L147.81-24.42L148.48-6.14L148.48-6.14Q148.63-2.52 150.40-1.41L150.40-1.41L150.40-1.41Q150.00-0.67 148.81 0.04L148.81 0.04L148.81 0.04Q147.63 0.74 146.06 0.74L146.06 0.74L146.06 0.74Q144.48 0.74 143.56 0.30L143.56 0.30L143.56 0.30Q142.63-0.15 142.12-0.89L142.12-0.89L142.12-0.89Q141.19-2.22 141.19-4.77L141.19-4.77L141.19-16.21L133.90 0L129.31 0L126.72-16.61L122.58 0Z" fill="#444"></path></g></g><style>text {
  font-size: 64px;
  font-family: Arial Black;
  dominant-baseline: central;
  text-anchor: middle;
}</style></svg>