<svg width="374.34991455078125px" height="121.60000610351562px" xmlns="http://www.w3.org/2000/svg" viewBox="62.825042724609375 14.199996948242188 374.34991455078125 121.60000610351562" style="background: rgba(0, 0, 0, 0);" preserveAspectRatio="xMidYMid"><defs><filter id="editing-extrusion" x="-100%" y="-100%" width="300%" height="300%"><feFlood result="color1" flood-color="#444"></feFlood><feConvolveMatrix order="8,8" divisor="1" kernelMatrix="1 0 0 0 0 0 0 0 0 1 0 0 0 0 0 0 0 0 1 0 0 0 0 0 0 0 0 1 0 0 0 0 0 0 0 0 1 0 0 0 0 0 0 0 0 1 0 0 0 0 0 0 0 0 1 0 0 0 0 0 0 0 0 1" in="SourceAlpha" result="extrude"></feConvolveMatrix><feComposite in="color1" in2="extrude" result="comp-extrude" operator="in"></feComposite><feOffset dx="4" dy="4" in="comp-extrude" result="offset-extrude"></feOffset><feMerge><feMergeNode in="offset-extrude"></feMergeNode><feMergeNode in="SourceGraphic"></feMergeNode></feMerge></filter></defs><g filter="url(#editing-extrusion)"><g transform="translate(119.6649878025055, 97.46499633789062)"><path d="M14.14 0L0.51 0L7.81-38.91L8.51-42.24L22.21-42.24L14.14 0ZM40.13-3.78L40.13-3.78L40.13-3.78Q38.40 1.28 31.74 1.28L31.74 1.28L31.74 1.28Q26.82 1.28 23.42-4.61L23.42-4.61L23.42-4.61Q19.97-10.50 19.33-20.10L19.33-20.10L19.33-20.10Q26.37-32.96 31.23-38.27L31.23-38.27L31.23-38.27Q35.90-43.33 40.77-43.33L40.77-43.33L40.77-43.33Q43.39-43.33 45.28-41.92L45.28-41.92L45.28-41.92Q47.17-40.51 47.62-38.27L47.62-38.27L47.62-38.27Q45.44-37.38 44.42-36.67L44.42-36.67L44.42-36.67Q41.86-34.75 38.40-30.46L38.40-30.46L32.58-23.49L32.58-23.49Q31.17-21.82 30.59-21.06L30.59-21.06L30.59-21.06Q31.55-15.68 34.43-10.37L34.43-10.37L34.43-10.37Q37.18-5.31 40.13-3.78ZM58.69 0L44.99 0L52.80-42.05L52.80-42.05Q59.14-42.75 68.38-42.75L68.38-42.75L68.38-42.75Q77.63-42.75 81.92-40.06L81.92-40.06L81.92-40.06Q86.21-37.38 86.21-31.97L86.21-31.97L86.21-31.97Q86.21-26.56 83.42-23.17L83.42-23.17L83.42-23.17Q80.64-19.78 75.84-18.69L75.84-18.69L75.84-18.69Q76.93-13.38 79.42-9.09L79.42-9.09L79.42-9.09Q81.73-5.06 84.42-3.78L84.42-3.78L84.42-3.78Q83.46-1.09 81.50 0.10L81.50 0.10L81.50 0.10Q79.55 1.28 76.77 1.28L76.77 1.28L76.77 1.28Q73.98 1.28 71.81-0.35L71.81-0.35L71.81-0.35Q69.63-1.98 67.90-4.99L67.90-4.99L67.90-4.99Q64.26-11.52 63.87-21.82L63.87-21.82L64.32-21.82L64.32-21.82Q69.06-21.95 71.42-24.42L71.42-24.42L71.42-24.42Q73.79-26.88 73.79-32.06L73.79-32.06L73.79-32.06Q73.79-38.53 68.35-38.78L68.35-38.78L66.94-38.78L66.94-38.78Q66.37-38.78 66.05-38.72L66.05-38.72L58.69 0ZM117.25 1.28L117.25 1.28L117.25 1.28Q109.06 1.28 108.29-10.37L108.29-10.37L97.28-10.37L97.28-10.37Q96-7.42 95.10-4.86L95.10-4.86L93.44 0L84.48 0L104.64-42.24L118.40-42.24L121.09-11.14L121.09-11.14Q121.73-4.42 124.29-2.43L124.29-2.43L124.29-2.43Q122.43 1.28 117.25 1.28ZM102.78-23.17L99.26-15.04L108.10-15.04L107.33-31.49L107.33-33.22L102.78-23.17ZM133.12-31.17L133.12-31.17L133.12-31.17Q130.94-32.83 130.94-36.38L130.94-36.38L130.94-36.38Q130.94-39.94 133.28-41.79L133.28-41.79L133.28-41.79Q135.62-43.65 139.65-43.65L139.65-43.65L139.65-43.65Q142.21-43.65 148.29-42.75L148.29-42.75L152.64-42.11L152.64-42.11Q154.82-41.86 157.09-41.86L157.09-41.86L157.09-41.86Q159.36-41.86 160.90-42.82L160.90-42.82L160.90-42.82Q163.20-40.77 163.20-37.82L163.20-37.82L163.20-37.82Q163.20-34.88 160.58-32.77L160.58-32.77L160.58-32.77Q157.89-30.53 154.43-30.53L154.43-30.53L154.43-30.53Q152.77-30.53 150.08-30.98L150.08-30.98L150.08-30.98Q146.94-21.12 146.94-14.27L146.94-14.27L146.94-14.27Q146.94-7.42 150.40-3.84L150.40-3.84L150.40-3.84Q148.80-0.96 146.43 0.16L146.43 0.16L146.43 0.16Q144.06 1.28 140.51 1.28L140.51 1.28L140.51 1.28Q136.96 1.28 134.75-0.67L134.75-0.67L134.75-0.67Q132.54-2.62 132.54-6.66L132.54-6.66L132.54-6.66Q132.54-11.33 135.10-19.01L135.10-19.01L135.10-19.01Q137.66-26.62 141.50-32.45L141.50-32.45L141.50-32.45Q139.65-32.64 137.73-32.64L137.73-32.64L137.73-32.64Q133.76-32.64 133.12-31.17ZM162.11-15.62L162.11-15.62L162.11-15.62Q162.11-27.71 168.38-35.33L168.38-35.33L168.38-35.33Q175.04-43.58 186.62-43.58L186.62-43.58L186.62-43.58Q195.01-43.58 199.23-39.52L199.23-39.52L199.23-39.52Q203.46-35.46 203.46-26.88L203.46-26.88L203.46-26.88Q203.46-13.82 196.80-6.21L196.80-6.21L196.80-6.21Q190.21 1.28 179.14 1.28L179.14 1.28L179.14 1.28Q170.50 1.28 166.30-3.04L166.30-3.04L166.30-3.04Q162.11-7.36 162.11-15.62ZM178.94-28.86L178.94-28.86L178.94-28.86Q176.06-17.34 176.06-8.26L176.06-8.26L176.06-8.26Q176.06-6.08 176.80-4.67L176.80-4.67L176.80-4.67Q177.54-3.26 179.49-3.26L179.49-3.26L179.49-3.26Q181.44-3.26 182.66-4.19L182.66-4.19L182.66-4.19Q183.87-5.12 184.83-7.23L184.83-7.23L184.83-7.23Q186.37-10.69 187.81-18.02L187.81-18.02L187.81-18.02Q189.25-25.34 189.38-28.38L189.38-28.38L189.38-28.38Q189.50-31.42 189.50-33.73L189.50-33.73L189.50-33.73Q189.50-36.03 188.80-37.50L188.80-37.50L188.80-37.50Q188.10-38.98 186.21-38.98L186.21-38.98L186.21-38.98Q184.32-38.98 183.04-37.82L183.04-37.82L183.04-37.82Q180.67-35.65 178.94-28.86ZM212.03 0L204.67 0L216.26-42.24L229.63-42.24L232.58-18.11L244.48-42.24L255.68-42.24L256.83-10.62L256.83-10.62Q257.09-4.35 260.16-2.43L260.16-2.43L260.16-2.43Q259.46-1.15 257.41 0.06L257.41 0.06L257.41 0.06Q255.36 1.28 252.64 1.28L252.64 1.28L252.64 1.28Q249.92 1.28 248.32 0.51L248.32 0.51L248.32 0.51Q246.72-0.26 245.82-1.54L245.82-1.54L245.82-1.54Q244.22-3.84 244.22-8.26L244.22-8.26L244.22-28.03L231.62 0L223.68 0L219.20-28.74L212.03 0Z" fill="#ccc"></path></g></g><style>text {
  font-size: 64px;
  font-family: Arial Black;
  dominant-baseline: central;
  text-anchor: middle;
}</style></svg>